<svg viewBox="0 0 188 43" fill="none" xmlns="http://www.w3.org/2000/svg">
<mask id="path-1-inside-1_113_43" fill="white">
<path d="M58.32 13.28C60.0532 13.28 61.5732 13.6133 62.88 14.28C64.2132 14.9466 65.2532 15.96 66 17.32C66.7466 18.68 67.12 20.4 67.12 22.48V34.68H63.28V22.92C63.28 20.8666 62.7732 19.32 61.76 18.28C60.7732 17.24 59.3732 16.72 57.56 16.72C56.2 16.72 55.0132 16.9866 54 17.52C52.9866 18.0534 52.2 18.84 51.64 19.88C51.1066 20.92 50.84 22.2134 50.84 23.76V34.68H47V5H50.84V19.2L50.08 17.68C50.7732 16.2934 51.84 15.2134 53.28 14.44C54.72 13.6667 56.4 13.28 58.32 13.28ZM83.6664 34.92C81.3998 34.92 79.3998 34.4534 77.6664 33.52C75.9598 32.5866 74.6264 31.3066 73.6664 29.68C72.7332 28.0534 72.2664 26.1866 72.2664 24.08C72.2664 21.9734 72.7198 20.1066 73.6264 18.48C74.5598 16.8534 75.8264 15.5866 77.4264 14.68C79.0532 13.7467 80.8798 13.28 82.9064 13.28C84.9598 13.28 86.7732 13.7333 88.3464 14.64C89.9198 15.5466 91.1464 16.8266 92.0264 18.48C92.9332 20.1066 93.3864 22.0134 93.3864 24.2C93.3864 24.36 93.3732 24.5466 93.3464 24.76C93.3464 24.9734 93.3332 25.1734 93.3064 25.36H75.2664V22.6H91.3064L89.7464 23.56C89.7732 22.2 89.4932 20.9866 88.9064 19.92C88.3198 18.8534 87.5064 18.0266 86.4664 17.44C85.4532 16.8266 84.2664 16.52 82.9064 16.52C81.5732 16.52 80.3864 16.8266 79.3464 17.44C78.3064 18.0266 77.4932 18.8666 76.9064 19.96C76.3198 21.0266 76.0264 22.2534 76.0264 23.64V24.28C76.0264 25.6934 76.3464 26.96 76.9864 28.08C77.6532 29.1734 78.5732 30.0266 79.7464 30.64C80.9198 31.2534 82.2664 31.56 83.7864 31.56C85.0398 31.56 86.1732 31.3466 87.1864 30.92C88.2264 30.4934 89.1332 29.8534 89.9064 29L92.0264 31.48C91.0664 32.6 89.8664 33.4534 88.4264 34.04C87.0132 34.6266 85.4264 34.92 83.6664 34.92ZM111.293 34.68V30.2L111.093 29.36V21.72C111.093 20.0934 110.613 18.84 109.653 17.96C108.719 17.0534 107.306 16.6 105.413 16.6C104.159 16.6 102.933 16.8134 101.733 17.24C100.533 17.64 99.5194 18.1866 98.6928 18.88L97.0928 16C98.186 15.12 99.4928 14.4533 101.013 14C102.559 13.52 104.173 13.28 105.853 13.28C108.759 13.28 110.999 13.9867 112.573 15.4C114.146 16.8134 114.933 18.9734 114.933 21.88V34.68H111.293ZM104.333 34.92C102.759 34.92 101.373 34.6534 100.173 34.12C98.9994 33.5866 98.0928 32.8534 97.4528 31.92C96.8128 30.96 96.4928 29.88 96.4928 28.68C96.4928 27.5334 96.7594 26.4934 97.2928 25.56C97.8528 24.6266 98.746 23.88 99.9728 23.32C101.226 22.76 102.906 22.48 105.013 22.48H111.733V25.24H105.173C103.253 25.24 101.959 25.56 101.293 26.2C100.626 26.84 100.293 27.6134 100.293 28.52C100.293 29.56 100.706 30.4 101.533 31.04C102.359 31.6534 103.506 31.96 104.973 31.96C106.413 31.96 107.666 31.64 108.733 31C109.826 30.36 110.613 29.4266 111.093 28.2L111.853 30.84C111.346 32.0934 110.453 33.0934 109.173 33.84C107.893 34.56 106.279 34.92 104.333 34.92ZM129.319 34.92C127.186 34.92 125.532 34.3466 124.359 33.2C123.186 32.0534 122.599 30.4134 122.599 28.28V8.84H126.439V28.12C126.439 29.2666 126.719 30.1466 127.279 30.76C127.866 31.3734 128.692 31.68 129.759 31.68C130.959 31.68 131.959 31.3466 132.759 30.68L133.959 33.44C133.372 33.9466 132.666 34.32 131.839 34.56C131.039 34.8 130.199 34.92 129.319 34.92ZM118.999 16.64V13.48H132.519V16.64H118.999ZM147.521 34.92C145.708 34.92 144.108 34.5866 142.721 33.92C141.361 33.2534 140.295 32.24 139.521 30.88C138.775 29.4934 138.401 27.76 138.401 25.68V13.48H142.241V25.24C142.241 27.32 142.735 28.88 143.721 29.92C144.735 30.96 146.148 31.48 147.961 31.48C149.295 31.48 150.455 31.2134 151.441 30.68C152.428 30.12 153.188 29.32 153.721 28.28C154.255 27.2134 154.521 25.9334 154.521 24.44V13.48H158.361V34.68H154.721V28.96L155.321 30.48C154.628 31.8934 153.588 32.9866 152.201 33.76C150.815 34.5334 149.255 34.92 147.521 34.92ZM176.912 34.92C175.152 34.92 173.538 34.52 172.072 33.72C170.632 32.8934 169.472 31.68 168.592 30.08C167.738 28.48 167.312 26.48 167.312 24.08C167.312 21.68 167.725 19.68 168.552 18.08C169.405 16.48 170.552 15.28 171.992 14.48C173.458 13.68 175.098 13.28 176.912 13.28C178.992 13.28 180.832 13.7333 182.432 14.64C184.032 15.5466 185.298 16.8134 186.232 18.44C187.165 20.04 187.632 21.92 187.632 24.08C187.632 26.24 187.165 28.1334 186.232 29.76C185.298 31.3866 184.032 32.6534 182.432 33.56C180.832 34.4666 178.992 34.92 176.912 34.92ZM165.672 42.44V13.48H169.352V19.2L169.112 24.12L169.512 29.04V42.44H165.672ZM176.592 31.56C177.952 31.56 179.165 31.2534 180.232 30.64C181.325 30.0266 182.178 29.16 182.792 28.04C183.432 26.8934 183.752 25.5734 183.752 24.08C183.752 22.56 183.432 21.2534 182.792 20.16C182.178 19.04 181.325 18.1734 180.232 17.56C179.165 16.9466 177.952 16.64 176.592 16.64C175.258 16.64 174.045 16.9466 172.952 17.56C171.885 18.1734 171.032 19.04 170.392 20.16C169.778 21.2534 169.472 22.56 169.472 24.08C169.472 25.5734 169.778 26.8934 170.392 28.04C171.032 29.16 171.885 30.0266 172.952 30.64C174.045 31.2534 175.258 31.56 176.592 31.56Z"/>
</mask>
<path d="M58.32 13.28C60.0532 13.28 61.5732 13.6133 62.88 14.28C64.2132 14.9466 65.2532 15.96 66 17.32C66.7466 18.68 67.12 20.4 67.12 22.48V34.68H63.28V22.92C63.28 20.8666 62.7732 19.32 61.76 18.28C60.7732 17.24 59.3732 16.72 57.56 16.72C56.2 16.72 55.0132 16.9866 54 17.52C52.9866 18.0534 52.2 18.84 51.64 19.88C51.1066 20.92 50.84 22.2134 50.84 23.76V34.68H47V5H50.84V19.2L50.08 17.68C50.7732 16.2934 51.84 15.2134 53.28 14.44C54.72 13.6667 56.4 13.28 58.32 13.28ZM83.6664 34.92C81.3998 34.92 79.3998 34.4534 77.6664 33.52C75.9598 32.5866 74.6264 31.3066 73.6664 29.68C72.7332 28.0534 72.2664 26.1866 72.2664 24.08C72.2664 21.9734 72.7198 20.1066 73.6264 18.48C74.5598 16.8534 75.8264 15.5866 77.4264 14.68C79.0532 13.7467 80.8798 13.28 82.9064 13.28C84.9598 13.28 86.7732 13.7333 88.3464 14.64C89.9198 15.5466 91.1464 16.8266 92.0264 18.48C92.9332 20.1066 93.3864 22.0134 93.3864 24.2C93.3864 24.36 93.3732 24.5466 93.3464 24.76C93.3464 24.9734 93.3332 25.1734 93.3064 25.36H75.2664V22.6H91.3064L89.7464 23.56C89.7732 22.2 89.4932 20.9866 88.9064 19.92C88.3198 18.8534 87.5064 18.0266 86.4664 17.44C85.4532 16.8266 84.2664 16.52 82.9064 16.52C81.5732 16.52 80.3864 16.8266 79.3464 17.44C78.3064 18.0266 77.4932 18.8666 76.9064 19.96C76.3198 21.0266 76.0264 22.2534 76.0264 23.64V24.28C76.0264 25.6934 76.3464 26.96 76.9864 28.08C77.6532 29.1734 78.5732 30.0266 79.7464 30.64C80.9198 31.2534 82.2664 31.56 83.7864 31.56C85.0398 31.56 86.1732 31.3466 87.1864 30.92C88.2264 30.4934 89.1332 29.8534 89.9064 29L92.0264 31.48C91.0664 32.6 89.8664 33.4534 88.4264 34.04C87.0132 34.6266 85.4264 34.92 83.6664 34.92ZM111.293 34.68V30.2L111.093 29.36V21.72C111.093 20.0934 110.613 18.84 109.653 17.96C108.719 17.0534 107.306 16.6 105.413 16.6C104.159 16.6 102.933 16.8134 101.733 17.24C100.533 17.64 99.5194 18.1866 98.6928 18.88L97.0928 16C98.186 15.12 99.4928 14.4533 101.013 14C102.559 13.52 104.173 13.28 105.853 13.28C108.759 13.28 110.999 13.9867 112.573 15.4C114.146 16.8134 114.933 18.9734 114.933 21.88V34.68H111.293ZM104.333 34.92C102.759 34.92 101.373 34.6534 100.173 34.12C98.9994 33.5866 98.0928 32.8534 97.4528 31.92C96.8128 30.96 96.4928 29.88 96.4928 28.68C96.4928 27.5334 96.7594 26.4934 97.2928 25.56C97.8528 24.6266 98.746 23.88 99.9728 23.32C101.226 22.76 102.906 22.48 105.013 22.48H111.733V25.24H105.173C103.253 25.24 101.959 25.56 101.293 26.2C100.626 26.84 100.293 27.6134 100.293 28.52C100.293 29.56 100.706 30.4 101.533 31.04C102.359 31.6534 103.506 31.96 104.973 31.96C106.413 31.96 107.666 31.64 108.733 31C109.826 30.36 110.613 29.4266 111.093 28.2L111.853 30.84C111.346 32.0934 110.453 33.0934 109.173 33.84C107.893 34.56 106.279 34.92 104.333 34.92ZM129.319 34.92C127.186 34.92 125.532 34.3466 124.359 33.2C123.186 32.0534 122.599 30.4134 122.599 28.28V8.84H126.439V28.12C126.439 29.2666 126.719 30.1466 127.279 30.76C127.866 31.3734 128.692 31.68 129.759 31.68C130.959 31.68 131.959 31.3466 132.759 30.68L133.959 33.44C133.372 33.9466 132.666 34.32 131.839 34.56C131.039 34.8 130.199 34.92 129.319 34.92ZM118.999 16.64V13.48H132.519V16.64H118.999ZM147.521 34.92C145.708 34.92 144.108 34.5866 142.721 33.92C141.361 33.2534 140.295 32.24 139.521 30.88C138.775 29.4934 138.401 27.76 138.401 25.68V13.48H142.241V25.24C142.241 27.32 142.735 28.88 143.721 29.92C144.735 30.96 146.148 31.48 147.961 31.48C149.295 31.48 150.455 31.2134 151.441 30.68C152.428 30.12 153.188 29.32 153.721 28.28C154.255 27.2134 154.521 25.9334 154.521 24.44V13.48H158.361V34.68H154.721V28.96L155.321 30.48C154.628 31.8934 153.588 32.9866 152.201 33.76C150.815 34.5334 149.255 34.92 147.521 34.92ZM176.912 34.92C175.152 34.92 173.538 34.52 172.072 33.72C170.632 32.8934 169.472 31.68 168.592 30.08C167.738 28.48 167.312 26.48 167.312 24.08C167.312 21.68 167.725 19.68 168.552 18.08C169.405 16.48 170.552 15.28 171.992 14.48C173.458 13.68 175.098 13.28 176.912 13.28C178.992 13.28 180.832 13.7333 182.432 14.64C184.032 15.5466 185.298 16.8134 186.232 18.44C187.165 20.04 187.632 21.92 187.632 24.08C187.632 26.24 187.165 28.1334 186.232 29.76C185.298 31.3866 184.032 32.6534 182.432 33.56C180.832 34.4666 178.992 34.92 176.912 34.92ZM165.672 42.44V13.48H169.352V19.2L169.112 24.12L169.512 29.04V42.44H165.672ZM176.592 31.56C177.952 31.56 179.165 31.2534 180.232 30.64C181.325 30.0266 182.178 29.16 182.792 28.04C183.432 26.8934 183.752 25.5734 183.752 24.08C183.752 22.56 183.432 21.2534 182.792 20.16C182.178 19.04 181.325 18.1734 180.232 17.56C179.165 16.9466 177.952 16.64 176.592 16.64C175.258 16.64 174.045 16.9466 172.952 17.56C171.885 18.1734 171.032 19.04 170.392 20.16C169.778 21.2534 169.472 22.56 169.472 24.08C169.472 25.5734 169.778 26.8934 170.392 28.04C171.032 29.16 171.885 30.0266 172.952 30.64C174.045 31.2534 175.258 31.56 176.592 31.56Z" fill="#030712" stroke="#030712" stroke-width="6" mask="url(#path-1-inside-1_113_43)"/>
<path d="M6.63807 2C3.13807 4.66667 -1.76193 11.7 6.63807 18.5" stroke="#030712" stroke-width="3"/>
<path d="M5.99999 34.5C9.49999 31.8333 14.4 24.8 5.99999 18" stroke="#030712" stroke-width="3"/>
<path d="M19.6381 2C16.1381 4.66667 11.2381 11.7 19.6381 18.5" stroke="#030712" stroke-width="3"/>
<path d="M19 34.5C22.5 31.8333 27.4 24.8 19 18" stroke="#030712" stroke-width="3"/>
<path d="M32.6381 2C29.1381 4.66667 24.2381 11.7 32.6381 18.5" stroke="#030712" stroke-width="3"/>
<path d="M32 34.5C35.5 31.8333 40.4 24.8 32 18" stroke="#030712" stroke-width="3"/>
</svg>
